<svg xmlns="http://www.w3.org/2000/svg" xmlns:xlink="http://www.w3.org/1999/xlink" width="232.975" height="60.374" viewBox="0 0 232.975 60.374"><defs><clipPath id="a"><rect width="232.975" height="60.374" fill="#0e595a"/></clipPath></defs><g clip-path="url(#a)"><path d="M0,0V42.955A17.419,17.419,0,0,0,17.419,60.374h50.67V0ZM30.095,23.772H25.786V36.6h4.309v4.407H17.266V36.6h4.113V23.772H17.266V19.366H30.095ZM50.823,41.008H46.514L42.4,30.367V41.008H37.995V19.366H42.4l4.113,11v-11h4.309Z" fill="#0e595a"/><path d="M742.337,84.97h-1.893v4.407h1.893a2,2,0,0,0,1.648-.7,2.358,2.358,0,0,0,.571-1.518,2.275,2.275,0,0,0-.571-1.518,2.048,2.048,0,0,0-1.648-.669" transform="translate(-534.422 -61.328)" fill="#0e595a"/><path d="M422.357,0H286.524V60.374H439.776V17.419A17.419,17.419,0,0,0,422.357,0m-104,23.642h-8.52v4.407h4.113v4.406h-4.113v4.015h8.52v4.407H305.427V19.236h12.927Zm20.63,17.236h-4.407l-2.089-5.452-2.22,5.452h-4.113l4.113-10.642-4.113-11h4.113l2.22,5.451,2.089-5.451h4.407l-4.407,11Zm20.5-17.236h-8.52v4.407h4.113v4.406h-4.113v4.015h8.52v4.407H346.557V19.236h12.927Zm20.546-.18H375.6V41.138h-4.226V23.462h-4.528V19.236H380.03Zm20.584.18h-8.52v4.407h4.113v4.406h-4.113v4.015h8.52v4.407H387.688V19.236h12.927ZM420.478,31.2c1.056,1.861.868,3.947.865,6,0,.287,0,3.683,0,3.683h-4.407V34.349a1.771,1.771,0,0,0-.571-1.371,2.363,2.363,0,0,0-1.649-.523h-1.893v8.422h-4.309V19.236h4.309a16.187,16.187,0,0,1,3.122.21,7.574,7.574,0,0,1,2.8,1.219,5.9,5.9,0,0,1,1.36,1.3,6.319,6.319,0,0,1,1.2,4.209,6.107,6.107,0,0,1-.7,2.591c-.063.115-.873,1.494-.894,1.476a3.519,3.519,0,0,1,.767.963" transform="translate(-206.801)" fill="#0e595a"/></g></svg>